#tb 0: 1/100
0,          0,          0,        1,      507, 0xde1f113a
0,         10,         10,        1,      213, 0x23c24d3d, S=1,     1024, 0xf7700427
0,         20,         20,        1,      130, 0x2c222a38, S=1,     1024, 0x03730427
0,         30,         30,        1,      384, 0xb1d8a4bd, S=1,     1024, 0xf7700427
0,         40,         40,        1,      381, 0x37a3a2c9, S=1,     1024, 0xf3740427
0,         50,         50,        1,      430, 0x162bb3d3, S=1,     1024, 0xf3740427
0,         60,         60,        1,      517, 0x411ad737, S=1,     1024, 0xf3740427
0,         70,         70,        1,      535, 0x12cde6b7, S=1,     1024, 0xf3740427
0,         80,         80,        1,      437, 0xec54b945, S=1,     1024, 0x0b6b0427
0,         90,         90,        1,      923, 0xd2e2a35f, S=1,     1024, 0x0b6b0427
0,        100,        100,        1,      693, 0x97064a1e, S=1,     1024, 0x0b6b0427
0,        110,        110,        1,     1194, 0xa6152c8a, S=1,     1024, 0x0b6b0427
0,        120,        120,        1,     1291, 0x94d25581, S=1,     1024, 0x0b6b0427
0,        130,        130,        1,     1245, 0x5b483525, S=1,     1024, 0x0b6b0427
0,        140,        140,        1,     1330, 0xfb5351c8, S=1,     1024, 0x0b6b0427
0,        150,        150,        1,     1275, 0x353c3913, S=1,     1024, 0x0b6b0427
0,        160,        160,        1,     1474, 0x27399754, S=1,     1024, 0x0b6b0427
0,        170,        170,        1,     1783, 0x9e024aa6, S=1,     1024, 0xecb30526
0,        180,        180,        1,     1675, 0x219dfaf8, S=1,     1024, 0xecb30526
0,        190,        190,        1,     1509, 0xd7f5abbe, S=1,     1024, 0xecb30526
0,        200,        200,        1,     1705, 0x44a01729, S=1,     1024, 0xecb30526
0,        210,        210,        1,     1745, 0x31ff1f89, S=1,     1024, 0xecb30526
0,        220,        220,        1,     1642, 0x55420147, S=1,     1024, 0xecb30526
0,        230,        230,        1,     1717, 0x4b8d1cb7, S=1,     1024, 0xecb30526
0,        240,        240,        1,     1900, 0xd7737a09, S=1,     1024, 0xecb30526
0,        250,        250,        1,     1806, 0xfe1a513f, S=1,     1024, 0xecb30526
0,        260,        260,        1,     1915, 0x976d80e6, S=1,     1024, 0xecb30526
0,        270,        270,        1,     2100, 0x0ae6d1ce, S=1,     1024, 0xecb30526
0,        280,        280,        1,     2700, 0x7a89f104, S=1,     1024, 0xecb30526
0,        290,        290,        1,     2673, 0xf6b6a71d, S=1,     1024, 0xecb30526
0,        300,        300,        1,     2894, 0x47eb484a, S=1,     1024, 0xecb30526
0,        310,        310,        1,     3257, 0x0b0cd125, S=1,     1024, 0xecb30526
0,        320,        320,        1,     3179, 0x3ee2c161, S=1,     1024, 0xecb30526
0,        330,        330,        1,     3296, 0x6230e506, S=1,     1024, 0xecb30526
0,        340,        340,        1,     3599, 0x8c2d75d6, S=1,     1024, 0xecb30526
0,        350,        350,        1,     3698, 0x5a59a042, S=1,     1024, 0xecb30526
0,        360,        360,        1,     3814, 0x96a8d57e, S=1,     1024, 0xecb30526
0,        370,        370,        1,     3626, 0xb3e67f8e, S=1,     1024, 0xecb30526
0,        380,        380,        1,     2950, 0x50806197, S=1,     1024, 0xecb30526
0,        390,        390,        1,     3086, 0x72068d4c, S=1,     1024, 0xecb30526
0,        400,        400,        1,     3093, 0xa248861e, S=1,     1024, 0xecb30526
0,        410,        410,        1,     3456, 0x6d232a96, S=1,     1024, 0xecb30526
0,        420,        420,        1,     4107, 0xe70d5eba, S=1,     1024, 0xecb30526
0,        430,        430,        1,     4216, 0xab3258f3, S=1,     1024, 0xecb30526
0,        440,        440,        1,     3613, 0x667f4ff8, S=1,     1024, 0xecb30526
0,        450,        450,        1,     3909, 0xa7b0e73d, S=1,     1024, 0xecb30526
0,        460,        460,        1,     4460, 0x7c8ae0be, S=1,     1024, 0xecb30526
0,        470,        470,        1,     4592, 0x58112f48, S=1,     1024, 0xecb30526
0,        480,        480,        1,     4821, 0x678d9b72, S=1,     1024, 0xecb30526
0,        490,        490,        1,     5397, 0x79eabff3, S=1,     1024, 0xecb30526
0,        500,        500,        1,     5266, 0xd5ab9630, S=1,     1024, 0xecb30526
0,        510,        510,        1,     5415, 0x76dce16e, S=1,     1024, 0xecb30526
0,        520,        520,        1,     5519, 0x30ed05d8, S=1,     1024, 0xecb30526
0,        530,        530,        1,     5701, 0x5bae5af7, S=1,     1024, 0xecb30526
0,        540,        540,        1,     6160, 0x98364177, S=1,     1024, 0xecb30526
0,        550,        550,        1,     6233, 0x52a05075, S=1,     1024, 0xecb30526
0,        560,        560,        1,     5911, 0x04bfc46a, S=1,     1024, 0xecb30526
0,        570,        570,        1,     5997, 0xf1e6f586, S=1,     1024, 0xecb30526
0,        580,        580,        1,     5946, 0xe6f3f055, S=1,     1024, 0xecb30526
0,        590,        590,        1,     6468, 0xc8a3cf61, S=1,     1024, 0xecb30526
0,        600,        600,        1,     6737, 0xc27b3b79, S=1,     1024, 0xecb30526
0,        610,        610,        1,     6275, 0x84d88e2b, S=1,     1024, 0xecb30526
0,        620,        620,        1,     6641, 0xb44b3534, S=1,     1024, 0xecb30526
0,        630,        630,        1,     6378, 0x3965888b, S=1,     1024, 0xecb30526
0,        640,        640,        1,     6257, 0x12115750, S=1,     1024, 0xecb30526
0,        650,        650,        1,     6908, 0x57137217, S=1,     1024, 0xecb30526
0,        660,        660,        1,     7230, 0xbacc24ee, S=1,     1024, 0xecb30526
0,        670,        670,        1,     7556, 0x1aa2a694, S=1,     1024, 0xecb30526
0,        680,        680,        1,     7413, 0xbc9e7718, S=1,     1024, 0xecb30526
0,        690,        690,        1,     7476, 0xb2a1aba0, S=1,     1024, 0xecb30526
0,        700,        700,        1,     7595, 0x4ce5e56c, S=1,     1024, 0xecb30526
0,        710,        710,        1,     7756, 0x8f2504f8, S=1,     1024, 0xecb30526
0,        720,        720,        1,     8015, 0xd4146c80, S=1,     1024, 0xecb30526
0,        730,        730,        1,     8128, 0x11b2bf4c, S=1,     1024, 0xecb30526
0,        740,        740,        1,     8101, 0xc627adbe, S=1,     1024, 0xecb30526
0,        750,        750,        1,     7863, 0xe99f3f3b, S=1,     1024, 0xecb30526
0,        760,        760,        1,     7960, 0x4bc091b8, S=1,     1024, 0xecb30526
0,        770,        770,        1,     8238, 0x1086ea8a, S=1,     1024, 0xecb30526
0,        780,        780,        1,     8321, 0x3a404791, S=1,     1024, 0xecb30526
0,        790,        790,        1,     8562, 0xcbdcc01e, S=1,     1024, 0xecb30526
0,        800,        800,        1,     8746, 0xec190b22, S=1,     1024, 0xecb30526
0,        810,        810,        1,     8578, 0x12e7a4e8, S=1,     1024, 0xecb30526
0,        820,        820,        1,     8878, 0x51c05771, S=1,     1024, 0xecb30526
0,        830,        830,        1,     9077, 0xe12b589b, S=1,     1024, 0xecb30526
0,        840,        840,        1,     9310, 0xde3bf881, S=1,     1024, 0xecb30526
0,        850,        850,        1,     9394, 0x1eba46cc, S=1,     1024, 0xecb30526
0,        860,        860,        1,     9161, 0x7c359911, S=1,     1024, 0xecb30526
0,        870,        870,        1,     9462, 0xccda3664, S=1,     1024, 0xecb30526
0,        880,        880,        1,     9650, 0x6e6292fc, S=1,     1024, 0xecb30526
0,        890,        890,        1,     9701, 0x08909b95, S=1,     1024, 0xecb30526
0,        900,        900,        1,     9523, 0xe61b38bb, S=1,     1024, 0xecb30526
0,        910,        910,        1,     9891, 0x96b90b98, S=1,     1024, 0xecb30526
0,        920,        920,        1,    10005, 0x2db84c80, S=1,     1024, 0xecb30526
0,        930,        930,        1,    10038, 0x37e52a72, S=1,     1024, 0xecb30526
0,        940,        940,        1,    10086, 0x135a43e4, S=1,     1024, 0xecb30526
0,        950,        950,        1,    10438, 0x472c0372, S=1,     1024, 0xecb30526
0,        960,        960,        1,    10583, 0xcf4c5862, S=1,     1024, 0xecb30526
0,        970,        970,        1,    10581, 0xce658137, S=1,     1024, 0xecb30526
0,        980,        980,        1,    10807, 0x3954dad9, S=1,     1024, 0xecb30526
0,        990,        990,        1,    11111, 0x5f8d504f, S=1,     1024, 0xecb30526
0,       1000,       1000,        1,    11194, 0x3c7e6a77, S=1,     1024, 0xecb30526
0,       1010,       1010,        1,    11240, 0x5112a0a3, S=1,     1024, 0xecb30526
0,       1020,       1020,        1,    11482, 0xb938f4f9, S=1,     1024, 0xecb30526
0,       1030,       1030,        1,    11680, 0x44a25971, S=1,     1024, 0xecb30526
0,       1040,       1040,        1,    11785, 0x7350b5db, S=1,     1024, 0xecb30526
0,       1050,       1050,        1,    11436, 0xe3170ad5, S=1,     1024, 0xecb30526
0,       1060,       1060,        1,    11927, 0x4ab8c884, S=1,     1024, 0xecb30526
0,       1070,       1070,        1,    11932, 0xecb5bdf7, S=1,     1024, 0xecb30526
0,       1080,       1080,        1,    12280, 0xa0ea76d4, S=1,     1024, 0xecb30526
0,       1090,       1090,        1,    12334, 0x16147fc3, S=1,     1024, 0xecb30526
0,       1100,       1100,        1,    12452, 0x61a8b3d7, S=1,     1024, 0xecb30526
0,       1110,       1110,        1,    12695, 0x8b703e74, S=1,     1024, 0xecb30526
0,       1120,       1120,        1,    12667, 0xc75b5175, S=1,     1024, 0xecb30526
0,       1130,       1130,        1,    12957, 0x3b839f0d, S=1,     1024, 0xecb30526
0,       1140,       1140,        1,    13053, 0xd3c9e3da, S=1,     1024, 0xecb30526
0,       1150,       1150,        1,    13147, 0xdf5c2e68, S=1,     1024, 0xecb30526
0,       1160,       1160,        1,    13171, 0x15961ca2, S=1,     1024, 0xecb30526
0,       1170,       1170,        1,    13197, 0xa5eb5717, S=1,     1024, 0xecb30526
0,       1180,       1180,        1,    13211, 0x1a625e31, S=1,     1024, 0xecb30526
0,       1190,       1190,        1,    13210, 0x246661c9, S=1,     1024, 0xecb30526
0,       1200,       1200,        1,    13467, 0xfcaaa461, S=1,     1024, 0xecb30526
0,       1210,       1210,        1,    13665, 0x8100dbf2, S=1,     1024, 0xecb30526
0,       1220,       1220,        1,    13692, 0xddd1eab9, S=1,     1024, 0xecb30526
0,       1230,       1230,        1,    13821, 0xc70e2af0, S=1,     1024, 0xecb30526
0,       1240,       1240,        1,    13946, 0xe15d9134, S=1,     1024, 0xecb30526
0,       1250,       1250,        1,    14063, 0xf652d232, S=1,     1024, 0xecb30526
0,       1260,       1260,        1,    14124, 0x756ccc81, S=1,     1024, 0xecb30526
0,       1270,       1270,        1,    14331, 0x56d64fe8, S=1,     1024, 0xecb30526
0,       1280,       1280,        1,    14469, 0x4c3faa7f, S=1,     1024, 0xecb30526
0,       1290,       1290,        1,    14536, 0xad02a19b, S=1,     1024, 0xecb30526
0,       1300,       1300,        1,    14608, 0x0971d168, S=1,     1024, 0xecb30526
0,       1310,       1310,        1,    14898, 0x1a6827b3, S=1,     1024, 0xecb30526
0,       1320,       1320,        1,    14978, 0xf9709fef, S=1,     1024, 0xecb30526
0,       1330,       1330,        1,    15142, 0x3598da63, S=1,     1024, 0xecb30526
0,       1340,       1340,        1,    15129, 0x062fb976, S=1,     1024, 0xecb30526
0,       1350,       1350,        1,    15243, 0x0a6a12f9, S=1,     1024, 0xecb30526
0,       1360,       1360,        1,    15337, 0x0f9a65d6, S=1,     1024, 0xecb30526
0,       1370,       1370,        1,    15638, 0xf7bc9ef5, S=1,     1024, 0xecb30526
0,       1380,       1380,        1,    15912, 0x2d5b26bb, S=1,     1024, 0xecb30526
0,       1390,       1390,        1,    16041, 0xbfaf4857, S=1,     1024, 0xecb30526
0,       1400,       1400,        1,    16228, 0xdac701f0, S=1,     1024, 0xecb30526
0,       1410,       1410,        1,    16262, 0xcd0ae5e4, S=1,     1024, 0xecb30526
0,       1420,       1420,        1,    16371, 0x9d4f0e73, S=1,     1024, 0xecb30526
0,       1430,       1430,        1,    16661, 0xd37ba990, S=1,     1024, 0xecb30526
0,       1440,       1440,        1,    16917, 0xd5b01774, S=1,     1024, 0xecb30526
0,       1450,       1450,        1,    17149, 0x435ecdd4, S=1,     1024, 0xecb30526
0,       1460,       1460,        1,    17172, 0x045fb234, S=1,     1024, 0xecb30526
0,       1470,       1470,        1,    17315, 0xc5ddadab, S=1,     1024, 0xecb30526
0,       1480,       1480,        1,    17396, 0xe8ef15b5, S=1,     1024, 0xecb30526
0,       1490,       1490,        1,    17430, 0x6f58f8bf, S=1,     1024, 0xecb30526
0,       1500,       1500,        1,    17576, 0x5c2a5445, S=1,     1024, 0xecb30526
0,       1510,       1510,        1,    17764, 0x609f8c3b, S=1,     1024, 0xecb30526
0,       1520,       1520,        1,    17826, 0x538c8532, S=1,     1024, 0xecb30526
0,       1530,       1530,        1,    17918, 0x84fc9a95, S=1,     1024, 0xecb30526
0,       1540,       1540,        1,    17823, 0x788fbada, S=1,     1024, 0xecb30526
0,       1550,       1550,        1,    18142, 0x56881e47, S=1,     1024, 0xecb30526
0,       1560,       1560,        1,    18257, 0xa35b86cf, S=1,     1024, 0xecb30526
0,       1570,       1570,        1,    18337, 0x82ddbc21, S=1,     1024, 0xecb30526
0,       1580,       1580,        1,    18293, 0xf0d838d6, S=1,     1024, 0xecb30526
0,       1590,       1590,        1,    18418, 0x7ed8bba6, S=1,     1024, 0xecb30526
0,       1600,       1600,        1,    18607, 0xccea47f6, S=1,     1024, 0xecb30526
0,       1610,       1610,        1,    18916, 0x880ebd63, S=1,     1024, 0xecb30526
0,       1620,       1620,        1,    19073, 0x055f02e3, S=1,     1024, 0xecb30526
0,       1630,       1630,        1,    19168, 0xcc2c02d7, S=1,     1024, 0xecb30526
0,       1640,       1640,        1,    19210, 0xa538ffc1, S=1,     1024, 0xecb30526
0,       1650,       1650,        1,    19398, 0x4777644d, S=1,     1024, 0xecb30526
0,       1660,       1660,        1,    19480, 0xcb2aa0fa, S=1,     1024, 0xecb30526
0,       1670,       1670,        1,    19659, 0xe3c1122d, S=1,     1024, 0xecb30526
0,       1680,       1680,        1,    19672, 0x1d1e193f, S=1,     1024, 0xecb30526
0,       1690,       1690,        1,    19936, 0xcd036346, S=1,     1024, 0xecb30526
0,       1700,       1700,        1,    19975, 0x96529b21, S=1,     1024, 0xecb30526
0,       1710,       1710,        1,    20021, 0xcdaf8bb5, S=1,     1024, 0xecb30526
0,       1720,       1720,        1,    20060, 0x1cea7784, S=1,     1024, 0xecb30526
